# xmcd CD database file
#
# Track frame offsets:
#	150
#	14508
#	32473
#	49922
#	65003
#	78019
#	90722
#	107790
#	121376
#	136780
#	152123
#	168814
#	189442
#	207268
#	231778
#	246587
#	269523
#	290960
#
# Disc length: 3921 seconds
#
# Revision: 1
# Processed by: cddbd v1.4PL0 Copyright (c) Steve Scherf et al.
# Submitted via: CDex 1.50beta10
#
DISCID=000f4f12
DTITLE=Helmut Eisel - bläst Brandwein
DYEAR=2001
DGENRE=Jazz
TTITLE0=Oi Tate, Sis Gut
TTITLE1=Kleine Prinzessin
TTITLE2=Fufzehn Yahr Fon Der Heim Awek
TTITLE3=Naftule Shpilt Far Dem Rebn
TTITLE4=Vie Tscie Is Naftule Der Driter
TTITLE5=Dem Rebins Chusid
TTITLE6=Ruhiger Nachmittag
TTITLE7=Rumänische Doina
TTITLE8=Fun Tashlach
TTITLE9=Linas Tanz
TTITLE10=Kolomeika
TTITLE11=Kleine Maus
TTITLE12=Wo bist Du gewesen
TTITLE13=Early Morning Train
TTITLE14=Niftys Eigene
TTITLE15=Freilicher Yontev
TTITLE16=Jam Pam
TTITLE17=weis nich
EXTD=YEAR: 2001
EXTT0=
EXTT1=
EXTT2=
EXTT3=
EXTT4=
EXTT5=
EXTT6=
EXTT7=
EXTT8=
EXTT9=
EXTT10=
EXTT11=
EXTT12=
EXTT13=
EXTT14=
EXTT15=
EXTT16=
EXTT17=
PLAYORDER=
